<?xml version="1.0" encoding="utf-8"?>
<!-- Generator: Adobe Illustrator 23.1.1, SVG Export Plug-In . SVG Version: 6.00 Build 0)  -->
<svg version="1.1" id="图层_1" xmlns="http://www.w3.org/2000/svg" xmlns:xlink="http://www.w3.org/1999/xlink" x="0px" y="0px"
	 viewBox="0 0 48 48" style="enable-background:new 0 0 48 48;" xml:space="preserve">
<style type="text/css">
	.st0{fill:url(#SVGID_1_);}
</style>
<g>
	<g>
		<path d="M20.4,22.1c0-0.2,0-0.4,0-0.5c0-0.1,0-0.2,0-0.3c0-0.2,0-0.4-0.1-0.7c-1-8.3-5.2-14.8-10.4-16.2c2.9,2.6,5.9,7.2,7.3,12.9
			c0.2,0.8,0.4,1.7,0.5,2.5c0.1,1,0.2,2,0.2,3.1c0,0.3,0,0.5,0,0.8v0.3c-0.1,2.4-0.4,5.1-1.1,7.7c-0.4,1.7-1,3.3-1.6,4.8
			c0,0,0,0,0,0.1c-2.1,4.9-5.1,8.1-7.9,8.1c-0.1,0-0.2,0-0.4,0c-0.2,0-0.5-0.1-0.7-0.1c-0.1,0-0.2-0.1-0.3-0.1
			c-1-0.4-1.7-1.2-2.4-2.4c0,0,0-0.1-0.1-0.1c-0.1-0.1-0.1-0.3-0.2-0.4c0,0,0,0,0,0C3.1,41.2,3.1,41,3,40.9c0,0,0,0,0,0
			c-0.1-0.2-0.2-0.4-0.2-0.6c0-0.1-0.1-0.3-0.1-0.5c0-0.1,0-0.2-0.1-0.2c-0.1-0.2-0.1-0.4-0.2-0.7c0,0,0,0,0,0c0,0,0-0.1,0-0.1
			c0-0.2-0.1-0.4-0.1-0.6c0-0.1,0-0.2,0-0.3c-0.1-0.6-0.2-1.3-0.2-2c0,1,0,2,0.1,2.9c0,0.1,0,0.2,0,0.3c0,0.2,0.1,0.4,0.1,0.6
			c0,0,0,0.1,0,0.1c0,0,0,0,0,0c0,0.2,0.1,0.4,0.1,0.6c0,0.1,0,0.1,0.1,0.2c0,0.1,0.1,0.3,0.1,0.4c0.1,0.2,0.1,0.4,0.2,0.6
			c0,0,0,0,0,0C3,41.7,3.1,41.9,3.1,42c0,0,0,0,0,0c0.1,0.1,0.1,0.3,0.2,0.4c0,0,0,0.1,0.1,0.1c0.6,1.1,1.5,1.8,2.6,2.2
			c0.1,0,0.3,0.1,0.4,0.1C6.6,45,6.9,45,7.1,45c4,0.4,9.1-4.3,11.7-11.3c0.9-2.4,1.4-4.7,1.6-6.9c0-0.1,0-0.2,0-0.3
			c0-0.2,0-0.5,0-0.7c0-0.4,0-0.8,0-1.2C20.5,23.8,20.4,23,20.4,22.1z"/>
		<path d="M36.8,6.6c-0.2,1.5-0.8,3.2-1.9,4.8c0,0,0,0,0,0c-0.7,1.1-1.6,2.2-2.7,3.3c-1.5,1.5-3.4,2.9-5.5,4
			c-0.7,0.4-1.5,0.8-2.2,1.2c-1.3,0.6-2.7,1.2-4.2,1.7c-0.1,0-0.2,0.1-0.3,0.1c-0.5,0.2-1.1,0.3-1.6,0.5c-0.2,0.1-0.4,0.1-0.6,0.2
			C9,25,3.5,29.8,2.5,35.4c0,0,0,0,0,0c-0.2,1.1-0.2,2.3,0,3.5c0.2,1.4,0.7,2.6,1.3,3.6C4,42.8,4.4,43.4,5,43.8
			c0.2,0.1,0.6,0.5,1,0.6c1.2,0.3,1.5,0.1,1.8,0.1c-0.2,0.1-0.4,0.2-0.8,0.5c-0.3,0-0.5-0.1-0.8-0.1c-0.1,0-0.3-0.1-0.4-0.1
			c-1.1-0.4-1.9-1.2-2.6-2.2c0,0,0-0.1-0.1-0.1c-0.1-0.1-0.1-0.2-0.2-0.4c0,0,0,0,0,0c-0.1-0.2-0.2-0.3-0.2-0.5c0,0,0,0,0,0
			c-0.1-0.2-0.2-0.4-0.2-0.6c0-0.1-0.1-0.3-0.1-0.4c0-0.1,0-0.1-0.1-0.2c-0.1-0.2-0.1-0.4-0.1-0.6c0,0,0,0,0,0c0,0,0-0.1,0-0.1
			c0-0.2-0.1-0.4-0.1-0.6c-0.1-0.5-0.1-1.3-0.1-2.1v0C2.3,32.9,4.7,26,17.9,22c0.2,0,0.3-0.1,0.5-0.1c0.5-0.2,1.1-0.3,1.6-0.5
			c0.1,0,0.2-0.1,0.3-0.1c1.4-0.5,2.8-1.1,4.2-1.7c0.8-0.4,1.5-0.8,2.2-1.2c3.9-2.2,7.2-5.1,8.8-8.4v0c0,0,0,0,0,0
			c0.5-1.1,0.9-2.2,1-3.3c0.2-1.5-0.3-2.7-1.1-3.2c-0.4-0.2-0.8-0.3-1.3-0.2c-0.1,0-0.3,0-0.4,0.1c-0.6,0.2-1.3,0.5-2.1,1.1
			c0,0,0,0,0,0c-0.1,0.1-0.3,0.2-0.5,0.4l-0.2-0.2c1.1-1,2.2-1.5,3.1-1.6c0.1,0,0.3,0,0.4,0c0.4,0,0.7,0.1,1.1,0.3
			c0.1,0.1,0.2,0.1,0.3,0.2C36.6,4,37,5.2,36.8,6.6z"/>
		<linearGradient id="SVGID_1_" gradientUnits="userSpaceOnUse" x1="7.5678" y1="32.8337" x2="33.7792" y2="6.6223">
			<stop  offset="0.15" style="stop-color:#000000"/>
			<stop  offset="0.5" style="stop-color:#666666"/>
			<stop  offset="0.85" style="stop-color:#000000"/>
		</linearGradient>
		<path class="st0" d="M35.7,9.7c-0.6,1.2-2,2.6-2.9,3.6c-2.5,2.7-5.8,4.6-9.1,6.1c-4.6,2.1-9.8,2.6-14.1,5.3
			c-2.6,1.7-4.9,4-6.2,6.8c-0.6,1.4-1.2,2.8-1.3,4.3c0,0.2,0,0.9,0.1,1.2c0.1,0.2,0.1-0.1,0.1-0.3c0-0.2,0,0.1,0-0.1
			c0-0.2,0.1-0.4,0.1-0.7c0.2-0.9,0.4-1.8,0.8-2.6c1.2-2.8,3.4-5.1,6-6.8c4.2-2.8,9.1-3.3,13.6-5.2c3.5-1.5,6.8-3.5,9.5-6.1
			c1.1-1.1,2.1-2.5,2.8-3.9C35.2,10.9,35.7,9.7,35.7,9.7z"/>
		<path d="M45.5,23.8c0.3,0,0.5,0.2,0.5,0.5c0,0.6-0.1,1.3-0.2,1.9c-0.4,3.3-1.4,6.2-2.7,8.5C43.1,34.8,43,34.9,43,35
			c-0.1,0.2-0.3,0.4-0.4,0.6c0,0,0,0.1-0.1,0.1c0,0,0,0,0,0c-0.2,0.2-0.3,0.4-0.4,0.6c-0.1,0.1-0.1,0.1-0.2,0.2
			c-0.1,0.1-0.2,0.3-0.4,0.4c-0.2,0.2-0.4,0.4-0.5,0.6c0,0,0,0,0,0c-0.2,0.2-0.3,0.3-0.5,0.5c0,0,0,0,0,0c-0.1,0.1-0.3,0.2-0.4,0.3
			c0,0-0.1,0.1-0.1,0.1c-1.3,0.9-2.7,1.4-4.2,1.3c-0.2,0-0.4,0-0.5,0c-0.3,0-0.7-0.1-1-0.2c-5.2-1.5-9.4-9.3-9.6-18.6
			c0-0.3,0-0.7,0-1c0-0.1,0-0.3,0-0.4c0.1-2.6,0.4-5.1,1.1-7.3c0-0.1,0.1-0.2,0.1-0.4c0.1-0.3,0.2-0.5,0.3-0.8c0.5-1.5,1.2-2.8,2-4
			c0.1-0.2,0.2-0.4,0.4-0.5c0.1-0.1,0.1-0.2,0.2-0.3c0.2-0.2,0.4-0.4,0.5-0.6C30.5,4.1,32.1,3.1,34,3c0,0,0.1,0,0.1,0
			c0.1,0,0.3,0,0.4,0c0.4,0,0.7,0.1,1.1,0.3c0.1,0.1,0.2,0.1,0.3,0.2c-0.5-0.2-1.1-0.2-1.7-0.1c0,0,0,0,0,0c-0.1,0-0.3,0-0.4,0.1
			c-0.1,0-0.2,0-0.3,0.1c-0.6,0.2-1.2,0.5-1.8,1c0,0,0,0,0,0C31,5,30.4,5.7,29.9,6.5c-0.1,0.2-0.3,0.4-0.4,0.6
			c-0.1,0.1-0.1,0.2-0.2,0.3C29.2,7.6,29.1,7.8,29,8c-0.6,1.1-1,2.4-1.4,3.8c-0.1,0.2-0.1,0.5-0.2,0.8c0,0.1-0.1,0.2-0.1,0.3
			c-0.4,1.7-0.6,3.5-0.6,5.5c0,0.1,0,0.3,0,0.4c0,0.7,0,1.3,0,2c0.3,8.3,3.6,14.8,7.6,15.4c0.3,0,0.5,0.1,0.8,0c0.1,0,0.3,0,0.4,0
			c1.1-0.1,2.2-0.8,3.1-1.7c0,0,0.1-0.1,0.1-0.1c0.1-0.1,0.2-0.2,0.3-0.4c0,0,0,0,0,0c0.1-0.2,0.3-0.3,0.4-0.5c0,0,0,0,0,0
			c0.1-0.2,0.3-0.4,0.4-0.6c0.1-0.1,0.2-0.3,0.3-0.4c0-0.1,0.1-0.1,0.1-0.2c0.1-0.2,0.2-0.4,0.3-0.6c0,0,0,0,0,0c0,0,0-0.1,0-0.1
			c0.1-0.2,0.2-0.4,0.3-0.6c0-0.1,0.1-0.2,0.1-0.3c0.4-1,0.8-2.1,1.1-3.2c0.1-0.4-0.2-0.8-0.7-0.7l0,0c-0.2,0-0.5-0.1-0.6-0.3
			L39.9,25c-0.2-0.3,0-0.6,0.3-0.7l2.5-0.2L45.5,23.8z"/>
	</g>
	<g>
		<path d="M28.5,24c0.2,0.4,0.5,0.5,1.6,0.3l1.7-0.3c0.4-0.1,0.5-0.1,0.4-0.6l0.1,0l0.2,1.2l-0.1,0c-0.1-0.4-0.2-0.4-0.6-0.4
			L30,24.7C29,24.8,28.7,24.6,28.5,24L28.5,24z"/>
		<path d="M31.3,26l0.6,2l0.8-0.3c0.4-0.1,0.4-0.2,0.3-0.6l0.1,0l0.4,1.1l-0.1,0c-0.2-0.4-0.2-0.4-0.6-0.3l-1.9,0.6
			c-0.4,0.1-0.4,0.2-0.3,0.6l-0.1,0L30.2,28l0.1,0c0.2,0.4,0.3,0.4,0.6,0.3l0.9-0.3l-0.6-2l-0.9,0.3c-0.4,0.1-0.4,0.2-0.3,0.6
			l-0.1,0l-0.4-1.1l0.1,0c0.2,0.4,0.2,0.4,0.6,0.3l1.9-0.6c0.4-0.1,0.4-0.2,0.3-0.6l0.1,0l0.4,1.1l-0.1,0c-0.2-0.4-0.2-0.4-0.6-0.3
			L31.3,26z"/>
		<path d="M31.2,30c0.1-0.1,0.2,0,0.3,0.1c0.1,0.1,0,0.2-0.1,0.3c-0.1,0.1-0.2,0-0.3-0.1C31,30.1,31.1,30,31.2,30z"/>
		<path d="M34.8,33c-0.2-0.2-0.3-0.2-0.4,0L34,33.3c-0.1,0.1-0.2,0.2-0.3,0.3c-0.3-0.2-0.6-0.4-0.9-0.7c-0.7-0.8-0.7-1.8,0-2.4
			c0.8-0.7,1.8-0.4,2.5,0.4c0.3,0.3,0.4,0.7,0.5,0.8c-0.1,0.1-0.3,0.3-0.5,0.5l-0.1-0.1c0.4-0.5,0.2-0.9-0.1-1.3
			c-0.6-0.7-1.3-0.8-2-0.2c-0.5,0.4-0.9,1.3-0.2,2.1c0.2,0.2,0.3,0.3,0.5,0.4c0.1,0.1,0.2,0.1,0.4-0.1l0.3-0.3
			c0.2-0.2,0.3-0.3-0.1-0.7l0.1,0L34.8,33L34.8,33z"/>
	</g>
</g>
</svg>
