<svg id="图层_1" data-name="图层 1" xmlns="http://www.w3.org/2000/svg" xmlns:xlink="http://www.w3.org/1999/xlink" viewBox="0 0 189.75 289.38"><defs><style>.cls-1{fill:#51378e;}.cls-2{fill:url(#未命名的渐变_166);}.cls-3{fill:url(#未命名的渐变_166-2);}.cls-4{fill:url(#未命名的渐变_166-3);}.cls-5{fill:#fff;}</style><linearGradient id="未命名的渐变_166" x1="-461.81" y1="627.45" x2="-414.81" y2="674.45" gradientUnits="userSpaceOnUse"><stop offset="0" stop-color="#90278e"/><stop offset="0.25" stop-color="#1b75bb"/><stop offset="0.5" stop-color="#483f98"/><stop offset="0.75" stop-color="#2e3191"/><stop offset="1" stop-color="#00adee"/></linearGradient><linearGradient id="未命名的渐变_166-2" x1="-594.41" y1="492.86" x2="-534.02" y2="553.26" xlink:href="#未命名的渐变_166"/><linearGradient id="未命名的渐变_166-3" x1="-591.64" y1="668.92" x2="-408.3" y2="485.58" xlink:href="#未命名的渐变_166"/></defs><title>logo_phoenix</title><path class="cls-1" d="M-603.31,695.85l13.72,2.64c3.56.5,6.29,1.7,8.25,4.49s3,6.19,3,10.76a26.81,26.81,0,0,1-1,7.13,12.39,12.39,0,0,1-4.07,6.25,11.51,11.51,0,0,1-7.8,2.77l-3,0v21.17l-9.07,1.74Zm9.07,11.77v11.63l2,.08a4.12,4.12,0,0,0,3.51-1.42,6.44,6.44,0,0,0,1.31-4.33,7,7,0,0,0-1-4.09,4,4,0,0,0-3-1.61Z" transform="translate(603.81 -463.45)"/><path class="cls-1" d="M-574.65,700.64l8.93,1.13v17.46l7.14.27v-17l9,.81v42l-9,.84V727.89l-7.14.14v18.9l-8.93,1.13Z" transform="translate(603.81 -463.45)"/><path class="cls-1" d="M-531.86,704.24a13.11,13.11,0,0,1,11,5.31q4,5.31,4,14.52t-4.07,14.72a12.54,12.54,0,0,1-10.53,5.49,11.68,11.68,0,0,1-10.4-5.7q-3.69-5.7-3.68-14.21a29.57,29.57,0,0,1,1.79-10.58,15.6,15.6,0,0,1,5-7.11A11.07,11.07,0,0,1-531.86,704.24Zm1,8.18c-1.8,0-3.19,1.05-4.15,3.14a21.18,21.18,0,0,0-1.43,8.59,22,22,0,0,0,1.39,8.69c.93,2.1,2.22,3.16,3.86,3.16s2.92-1.09,3.9-3.26a21.34,21.34,0,0,0,1.47-8.67c0-3.75-.5-6.62-1.48-8.64S-529.51,712.42-530.9,712.42Z" transform="translate(603.81 -463.45)"/><path class="cls-1" d="M-512.7,704.8l22-.37v8.23h-13v7.19h12.12v7.6h-12.12v8.4h13v8.43l-22-.46Z" transform="translate(603.81 -463.45)"/><path class="cls-1" d="M-486.35,704.32l9.09-.4,4.47,12.76q2,5.79,3,10.12h.47l-.22-7.11,0-16.26,8.63-.76,0,43.32-9.11-.71-4.42-13.57q-2-5.81-3-10h-.5l.22,6.8,0,16.29-8.63-.46Z" transform="translate(603.81 -463.45)"/><path class="cls-1" d="M-455.41,702.24l9.07-1.11v46.43l-9.07-1Z" transform="translate(603.81 -463.45)"/><path class="cls-1" d="M-440.23,700.4l9-1.3,2.44,13.73,2.31-14.56,9.77-1.89-5.91,24.14,8.05,32.29-10.41-2-3.81-22.09-4,20.78-9.77-1.42,7.67-27.28Z" transform="translate(603.81 -463.45)"/><path class="cls-2" d="M-414.17,671.63l-6-23.52L-450.78,617a115.27,115.27,0,0,1-21.55,21l28.94,29.42h0l24.91,7.82C-415.79,676.05-413.52,674.17-414.17,671.63Z" transform="translate(603.81 -463.45)"/><path class="cls-3" d="M-558.86,550a137.13,137.13,0,0,1,23.12-5.71q6.13-1,12.09-1.39l-50.87-51.71c-4.22-4.28-10.8-5.14-14.7-1.9l-9.12,7.56c-3.9,3.23-3.64,9.32.58,13.61Z" transform="translate(603.81 -463.45)"/><path class="cls-4" d="M-438.52,550.45c-12.38,17.46-26.93,26.2-45.38,36.53,24.72-3.32,42.8-20.67,52.76-36.16-10.77,37.78-28.41,61.62-77.12,69.92,30.63,3.14,50.32-12,53.14-15.31-11,19.72-40.55,47.46-86.35,48.52,15,6.64,40.59-.18,59.78-12.73-50,55.14-100.42,54.13-117.65,14.84-7.49-17.1-6.76-47,11.38-71.85,14.94-20.48,35.42-32.1,61.62-31.73,37.9.53,81.92-36.35,95.92-89C-427.73,468.08-411.93,513-438.52,550.45Z" transform="translate(603.81 -463.45)"/><circle class="cls-5" cx="81.85" cy="129.04" r="2.78"/><circle class="cls-5" cx="143.73" cy="72.93" r="2.78"/><circle class="cls-5" cx="38.67" cy="203.52" r="2.78"/><circle class="cls-5" cx="99.71" cy="121.86" r="1.39"/><circle class="cls-5" cx="69.43" cy="114.03" r="3.67"/><circle class="cls-5" cx="41.45" cy="168.74" r="5.1"/><circle class="cls-5" cx="76.72" cy="149.78" r="3.62"/><circle class="cls-5" cx="50.44" cy="123.25" r="1.39"/><circle class="cls-5" cx="69.43" cy="177.92" r="1.39"/><circle class="cls-5" cx="126.2" cy="161.85" r="1.39"/><circle class="cls-5" cx="155.82" cy="117.01" r="1.39"/><circle class="cls-5" cx="115.67" cy="144.76" r="1.39"/><circle class="cls-5" cx="33.01" cy="146.15" r="1.39"/><circle class="cls-5" cx="10.08" cy="169.61" r="2.26"/><circle class="cls-5" cx="120.89" cy="100.68" r="2.26"/><circle class="cls-5" cx="165.11" cy="71.56" r="1.39"/><circle class="cls-5" cx="86.88" cy="94.16" r="1.39"/><circle class="cls-5" cx="167.57" cy="41.68" r="2.26"/></svg>