<?xml version="1.0" encoding="utf-8"?>
<!-- Generator: Adobe Illustrator 23.1.1, SVG Export Plug-In . SVG Version: 6.00 Build 0)  -->
<svg version="1.1" id="图层_1" xmlns="http://www.w3.org/2000/svg" xmlns:xlink="http://www.w3.org/1999/xlink" x="0px" y="0px"
	 viewBox="0 0 88 88" style="enable-background:new 0 0 88 88;" xml:space="preserve">
<style type="text/css">
	.st0{fill:#16B2AA;}
	.st1{fill:#BA9CF8;enable-background:new    ;}
	.st2{fill:#11D0EF;enable-background:new    ;}
	.st3{fill:#108DE2;enable-background:new    ;}
	.st4{fill:#7F5EFA;enable-background:new    ;}
	.st5{fill:#30E546;}
	.st6{fill:#CE57B7;enable-background:new    ;}
	.st7{fill:#EAB215;enable-background:new    ;}
	.st8{fill:#11EF35;enable-background:new    ;}
	.st9{fill:#D3ED14;enable-background:new    ;}
	.st10{fill:#E87B18;enable-background:new    ;}
	.st11{fill:#E23C1B;enable-background:new    ;}
	.st12{fill:#DD1F56;enable-background:new    ;}
</style>
<polygon class="st0" points="38,22 38,22 38,22 "/>
<polyline class="st1" points="32.5,55.5 15,66 26.5,44 "/>
<polygon class="st2" points="50,22 44,33.5 38,22 38,22 50,22 "/>
<polygon class="st3" points="44,33.5 35.3,38.7 26.5,44 38,22 "/>
<polygon class="st4" points="44,33.5 32.5,55.5 26.5,44 35.3,38.7 "/>
<polygon class="st5" points="50,22 50,22 50,22 "/>
<polygon class="st6" points="15,66 27,66 32.5,55.5 "/>
<polygon class="st0" points="50,22 50,22 50,22 "/>
<polyline class="st7" points="55.5,55.5 73,66 61.5,44 "/>
<polygon class="st8" points="44,33.5 52.7,38.7 61.5,44 50,22 "/>
<polygon class="st9" points="44,33.5 55.5,55.5 61.5,44 52.7,38.7 "/>
<polygon class="st5" points="38,22 38,22 38,22 "/>
<polygon class="st10" points="73,66 61,66 55.5,55.5 "/>
<polygon class="st11" points="50,54 50,66 38,66 "/>
<polygon class="st12" points="50,54 38,66 38,54 "/>
</svg>
