<svg id="图层_1" data-name="图层 1" xmlns="http://www.w3.org/2000/svg" viewBox="0 0 397 397"><defs><style>.cls-1,.cls-3{fill:none;}.cls-2{fill:#683100;}.cls-3{stroke:#30edbf;stroke-miterlimit:10;stroke-width:10px;}.cls-4{fill:#8a4810;}.cls-5{fill:#242728;}</style></defs><title>logo_paws2</title><rect class="cls-1" width="397" height="397"/><path class="cls-2" d="M-761.93,639.65c-.17.15-.34.28-.52.42a15.56,15.56,0,0,1-2.25,1.8,45.75,45.75,0,0,1-28.45,9.53,49.59,49.59,0,0,1-17.1-3,75.78,75.78,0,0,0-3.16,21.84c0,17.84,6,33.76,15.32,44.23h0c0,.2,9,8.34,9,14.69,0,8.71-7.59,14.09-16.3,14.09-10.92-2.2-21.77-.72-33.62,1.75-8.71,0-14.9-4.6-14.9-13.31,0-3.54,6-6.27,13-8.36-31.31-8.69-55-49.26-55-98,0-25.32,6.39-48.43,16.92-66A56,56,0,0,1-864,539a55.64,55.64,0,0,1,28.43-12.8,45.61,45.61,0,0,1,7.13-.55h.71A56.06,56.06,0,0,1-815,527.05a56,56,0,0,1,41.33,39.75v0c1.3,2.66,1.84,7.4,1.91,12.34,0,.8,0,1.6,0,2.4a56.07,56.07,0,0,1-.52,7.6,25.78,25.78,0,0,1-1.42,7.06v0a55,55,0,0,1-1.75,5.36,18.62,18.62,0,0,0-.24,3c0,7,3.27,12.74,8.7,15.77a11,11,0,0,1,2,1.07,9.25,9.25,0,0,1,1,.39.39.39,0,0,1,0,.72c-2.26,1-4.29,3.9-5.07,7.58-1,5,.63,9.61,3.75,10.26A4.37,4.37,0,0,0-761.93,639.65Z" transform="translate(932.5 -437.5)"/><path class="cls-2" d="M-572,654a56.32,56.32,0,0,1-25.24,47.38,32.06,32.06,0,0,0,.35-4.52,62.73,62.73,0,0,0-1.43-13.42,54.69,54.69,0,0,0-2.88-9.29,37.46,37.46,0,0,0,8.51-23.62c0-20.25-16.63-37-38.34-40-.87-.12-1.74-.22-2.63-.29a6,6,0,0,1-4.18-5.65,6,6,0,0,1,4.64-5.78h0c.44-.07.87-.13,1.32-.18a52.16,52.16,0,0,1,6.41-.4C-596,598.24-572,623.21-572,654Z" transform="translate(932.5 -437.5)"/><path class="cls-3" d="M-619.23,598.48" transform="translate(932.5 -437.5)"/><path class="cls-4" d="M-833.28,593.56c-14,1.36-27.58-20.16-30.27-48.06q-.33-3.3-.42-6.53a55.64,55.64,0,0,1,28.43-12.8,45.61,45.61,0,0,1,7.13-.55h.71A56.06,56.06,0,0,1-815,527.05a99.06,99.06,0,0,1,2.26,13.54C-810.09,568.49-819.27,592.2-833.28,593.56Z" transform="translate(932.5 -437.5)"/><circle class="cls-5" cx="124.2" cy="140.69" r="8.62"/><path class="cls-5" d="M-758.41,631.39a11,11,0,0,1-3.52,8.26h0a4.37,4.37,0,0,1-3.3.75c-3.12-.65-4.8-5.25-3.75-10.26.87-4.13,3.32-7.25,5.9-7.86A10.61,10.61,0,0,1-758.41,631.39Z" transform="translate(932.5 -437.5)"/><path class="cls-2" d="M-740.13,717.91a23.63,23.63,0,0,1-1.86-2.13,25.59,25.59,0,0,1-5.24-15.68,26.09,26.09,0,0,1,.36-4.36h-.07l-.09.45.09-.45h0a43.61,43.61,0,0,0,.78-8.24A43,43,0,0,0-748,675c-4.26-14-15.44-24-28.56-24l-.8,0a26.18,26.18,0,0,0-3.77.39c-10.25,2.65-18.12,17.8-18.12,36.09s7.87,33.44,18.12,36.09a26.18,26.18,0,0,0,3.77.39c5.49-.24,10.46-4,14.16-10.08a27.31,27.31,0,0,0,2.61,4.66c3.36,4.82,8.09,8.07,13.41,8.78h0a15.43,15.43,0,0,0,1.68.13h0a6.47,6.47,0,0,0,6.14-6.46A6.38,6.38,0,0,0-740.13,717.91Zm-25.67-16.08a6.93,6.93,0,0,1-5.05,2.52c-5.44,0-9.86-8-9.86-17.93s4.42-17.93,9.86-17.93c5.05,0,9.22,6.91,9.79,15.81,0,.7.07,1.41.07,2.12C-761,693-762.92,698.7-765.8,701.83Zm17.77-1.69c.13-.43.25-.86.37-1.3C-747.77,699.28-747.9,699.71-748,700.14Z" transform="translate(932.5 -437.5)"/><path class="cls-2" d="M-594.3,696.16a50.3,50.3,0,0,1-50.4,50.22,50.38,50.38,0,0,1-11-1.2c-.51-.11-1-.22-1.49-.35s-1.13-.3-1.69-.46a6.33,6.33,0,0,1-3.24-5.52,6.35,6.35,0,0,1,6.37-6.34c.12,0,1.6.2,1.6.2a18.48,18.48,0,0,0,1.92.12,15.57,15.57,0,0,0,15.6-15.54,15.6,15.6,0,0,0-7.9-13.9,2.06,2.06,0,0,0-.31-.13l-.15,0a28.33,28.33,0,0,1-21.53-27.69,28.65,28.65,0,0,1,28.7-28.6,29.35,29.35,0,0,1,5.08.44h0q2.19.54,4.32,1.26c1.08.37,2.15.78,3.21,1.22A50.22,50.22,0,0,1-594.3,696.16Z" transform="translate(932.5 -437.5)"/><path class="cls-2" d="M-668.06,679c-3.71-10.89-10.93-19.24-19.1-23.33h-.39a41.13,41.13,0,0,1,10.37,16.57,41.66,41.66,0,0,1,2,19.3,47.39,47.39,0,0,1-3.32,9.68,2.38,2.38,0,0,1-.11.38.06.06,0,0,0,0,0,4.25,4.25,0,0,1-.32.64,2.83,2.83,0,0,1-2.35,1.35h-.08a2.8,2.8,0,0,1-2.34-1.5,3.53,3.53,0,0,1-.39-1,3.65,3.65,0,0,1-.08-.74.47.47,0,0,1,0-.17c0-.45-.08-.9-.13-1.34A100.64,100.64,0,0,0-686,687.68a85.84,85.84,0,0,0-2.69-10.1l-.11-.3a57.31,57.31,0,0,0-6.65-13.75,31.22,31.22,0,0,0-5.74-6.46,19.69,19.69,0,0,0-4.56-2.91,14.66,14.66,0,0,0-6.09-1.35,15.38,15.38,0,0,0-7.83,2.24,17.78,17.78,0,0,0-1.64,1.08,28.43,28.43,0,0,1,5.56,5.65A49,49,0,0,1-710,671.87a71.11,71.11,0,0,1,3.26,9.19c.72,2.5,1.33,5.12,1.85,7.85.28,1.49.53,3,.75,4.57a2.47,2.47,0,0,1,.05.38,7.94,7.94,0,0,1,.15,1.09l0,.39c0,.13,0,.27,0,.4s0,.24,0,.36,0,.36,0,.54h0a9.47,9.47,0,0,1-2.37,5.51,7.64,7.64,0,0,1-4.16,2.4,8,8,0,0,1-1.12.13h-.65a7.24,7.24,0,0,1-3.47-1.06,7.4,7.4,0,0,1-.79-.55,8.87,8.87,0,0,1-2.89-4,10.38,10.38,0,0,1-.58-3v-.5l-.27-2q-.56-3.88-1.38-7.51a75.2,75.2,0,0,0-5.2-15.59,51.92,51.92,0,0,0-2.65-5,40.88,40.88,0,0,0-3-4.36,29,29,0,0,0-3.58-3.73,20.7,20.7,0,0,0-3.11-2.25,15.27,15.27,0,0,0-7.89-2.29,14.73,14.73,0,0,0-5.64,1.15,43.73,43.73,0,0,1,5.59,9,67.44,67.44,0,0,1,6,22.93h0a62.25,62.25,0,0,0,1.89,12.25c2.06,8,5.65,14.7,10.16,19.3a22.22,22.22,0,0,0,9.11,5.81,17.25,17.25,0,0,0,5.11.78A18.67,18.67,0,0,0-703.53,720c.49-.37,1-.75,1.44-1.18a29.35,29.35,0,0,0,2.61-2.62c.51-.58,1-1.18,1.47-1.82a21.81,21.81,0,0,0,7.18,8.08l.5.15h0a14.56,14.56,0,0,0,1.56.35,13,13,0,0,0,3.41.08c.24,0,.46,0,.69-.09a15,15,0,0,0,8.07-4.3l0,0C-666.45,711.24-662.6,695-668.06,679Zm-35,32.27c0-.16,0-.32,0-.48l.38.7Z" transform="translate(932.5 -437.5)"/></svg>