<?xml version="1.0" encoding="utf-8"?>
<!-- Generator: Adobe Illustrator 23.1.1, SVG Export Plug-In . SVG Version: 6.00 Build 0)  -->
<svg version="1.1" id="图层_1" xmlns="http://www.w3.org/2000/svg" xmlns:xlink="http://www.w3.org/1999/xlink" x="0px" y="0px"
	 viewBox="0 0 206.5 18" style="enable-background:new 0 0 206.5 18;" xml:space="preserve">
<style type="text/css">
	.st0{opacity:0.5;fill:#F05A23;}
	.st1{opacity:0.5;fill:#006441;}
</style>
<title>logo_pingan</title>
<path class="st0" d="M69.2,11.9h-8.5V3.4h7.8c0.2,0,0.4-0.2,0.4-0.4c0,0,0,0,0,0V1.4c0-0.2-0.2-0.4-0.4-0.4c0,0,0,0,0,0H49.5
	c-0.2,0-0.4,0.2-0.4,0.4c0,0,0,0,0,0V3c0,0.2,0.2,0.4,0.4,0.4c0,0,0,0,0,0h7.7v8.5h-8.5c-0.2,0-0.4,0.2-0.4,0.4v0V14
	c0,0.2,0.2,0.4,0.4,0.4c0,0,0,0,0,0h8.5v3.3c0,0.2,0.2,0.4,0.4,0.4c0,0,0,0,0,0h2.6c0.2,0,0.4-0.2,0.4-0.4c0,0,0,0,0,0v-3.3h8.5
	c0.2,0,0.4-0.2,0.4-0.4c0,0,0,0,0,0v-1.7C69.5,12,69.4,11.9,69.2,11.9z M53.4,10.5H56c0.1,0,0.2-0.1,0.3-0.2c0-0.1,0-0.1,0-0.1
	l-2.6-5.1c-0.1-0.2-0.4-0.4-0.7-0.4h-2.6c-0.1,0-0.2,0.1-0.3,0.2c0,0.1,0,0.1,0,0.2l2.6,5.1C52.9,10.4,53.1,10.5,53.4,10.5z
	 M41.5,10.7h-2.3v0.9h-2.3v-2h3.9V7.7h-3.9V6.3h4.6V4.2H29.4v2.1h4.6v1.4H30v1.9h3.9v2h-4.6v2.1h12.1V10.7z M19.4,2.5h-6.8v-2
	c0-0.2-0.2-0.4-0.4-0.4l0,0H9.5c-0.2,0-0.4,0.2-0.4,0.4v2H2.3C1,2.5,0,3.5,0,4.8l0,0v7.4c0,1.3,1,2.3,2.3,2.3c0,0,0,0,0,0h6.8v3.2
	c0,0.2,0.2,0.4,0.4,0.4h2.8c0.2,0,0.4-0.2,0.4-0.4c0,0,0,0,0,0v-3.2h6.8c1.3,0,2.3-1,2.3-2.3c0,0,0,0,0,0V4.8
	C21.7,3.5,20.7,2.5,19.4,2.5C19.4,2.5,19.4,2.5,19.4,2.5z M9.1,11.9H3.2V5h5.9V11.9z M18.5,11.9h-5.9V5h5.9V11.9z M72,5h1.8
	c0.2,0,0.4-0.2,0.4-0.4l0,0V3.5h15.9v1.1c0,0.2,0.2,0.4,0.4,0.4c0,0,0,0,0,0h1.8c0.2,0,0.4-0.2,0.4-0.4c0,0,0,0,0,0V3.3
	c0-1.1-0.9-2-2-2h-6.9V0.4c0-0.2-0.2-0.4-0.4-0.4l0,0h-2.6c-0.2,0-0.4,0.2-0.4,0.4c0,0,0,0,0,0v0.9h-6.9c-1.1,0-2,0.9-2,2v1.3
	C71.6,4.8,71.8,5,72,5C72,5,72,5,72,5L72,5z M43.8,0.7H27c-1.2,0-2.3,1-2.3,2.2c0,0,0,0,0,0v12.3c0,1.3,1,2.3,2.3,2.3c0,0,0,0,0,0
	h16.7c1.3,0,2.3-1,2.3-2.3V2.9C46.1,1.7,45,0.7,43.8,0.7L43.8,0.7z M43,15.1H27.8V2.9H43V15.1z M65,4.8c-0.3,0-0.5,0.1-0.7,0.4
	l-2.6,5.1c-0.1,0.1,0,0.3,0.1,0.3c0,0,0.1,0,0.1,0h2.6c0.3,0,0.5-0.1,0.7-0.4l2.6-5.1c0.1-0.1,0-0.2-0.1-0.3c0,0-0.1,0-0.2,0L65,4.8
	z M180.6,1.8c-0.1-0.3-0.4-0.4-0.7-0.4h-2.4c-0.3,0-0.6,0.2-0.7,0.4l-7.6,15c-0.2,0.5,0,0.8,0.4,0.8h2.4c0.3,0,0.6-0.1,0.7-0.4
	l6-12.1l6,12.1c0.1,0.3,0.4,0.5,0.7,0.4h2.4c0.5,0,0.7-0.3,0.4-0.8L180.6,1.8z M92.5,6.8h-3.3V5.3c0-0.2-0.2-0.4-0.4-0.4
	c0,0,0,0,0,0h-2.3c-0.2,0-0.4,0.2-0.4,0.4v1.4h-7.8V5.3c0-0.2-0.2-0.4-0.4-0.4h-2.3c-0.2,0-0.4,0.2-0.4,0.4v1.4h-3.3
	c-0.2,0-0.4,0.2-0.4,0.4c0,0,0,0,0,0v1.7c0,0.2,0.2,0.4,0.4,0.4l0,0h3.4v1c0,1.4,0.8,2.6,2,3.1l2,1c-1.2,0.5-2.5,0.8-3.7,0.8h-3.1
	c-0.2,0-0.4,0.2-0.4,0.4v1.6c0,0.2,0.2,0.4,0.4,0.4h3.1c1.4,0,2.7-0.3,4-0.7c0.5-0.2,1.5-0.6,2.6-1.1c1.1,0.5,2.1,0.9,2.6,1.1
	c1.3,0.5,2.6,0.7,4,0.7h3.1c0.2,0,0.4-0.2,0.4-0.4c0,0,0,0,0,0v-1.6c0-0.2-0.2-0.4-0.4-0.4c0,0,0,0,0,0h-3.1c-1.3,0-2.6-0.3-3.7-0.8
	l2-1c1.3-0.5,2.1-1.7,2-3.1v-1h3.3c0.2,0,0.4-0.2,0.4-0.4c0,0,0,0,0,0V7.1C92.8,6.9,92.6,6.7,92.5,6.8L92.5,6.8z M86.1,9.9
	c0.1,0.7-0.3,1.4-1,1.7c-0.7,0.4-1.9,0.9-2.9,1.4c-1-0.5-2.2-1-2.9-1.4c-0.7-0.3-1.1-0.9-1-1.7V9.2h7.8L86.1,9.9z M159.4,1.1h-5.6
	c-3,0-5.5,2.2-5.5,4.9v6.8c0,2.7,2.5,4.9,5.5,4.9h5.6c3,0,5.5-2.2,5.5-4.9V8.5h-8.6v2.3c0,0.2,0.2,0.4,0.4,0.4h4.7v3.1
	c0,0.2-0.2,0.4-0.4,0.4l0,0h-9c-0.2,0-0.4-0.2-0.4-0.4c0,0,0,0,0,0V4.6c0-0.2,0.2-0.4,0.4-0.4l0,0h9c0.2,0,0.4,0.2,0.4,0.4l0,0v1.9
	c0,0.2,0.2,0.4,0.4,0.4h2.7c0.2,0,0.4-0.2,0.4-0.4c0,0,0,0,0,0V6.1C165,3.3,162.5,1.1,159.4,1.1L159.4,1.1z M206.2,1.4h-2.5
	c-0.2,0-0.4,0.2-0.4,0.4c0,0,0,0,0,0v11.1c-1.3-1.4-9.7-11-10-11.2c-0.2-0.2-0.5-0.3-0.7-0.3h-2.4c-0.2,0-0.4,0.2-0.4,0.4
	c0,0,0,0,0,0v15.4c0,0.2,0.2,0.4,0.4,0.4l0,0h2.5c0.2,0,0.4-0.2,0.4-0.4V5.9c0.9,1,9.8,11.1,10,11.3c0.2,0.2,0.5,0.3,0.7,0.3h2.3
	c0.2,0,0.4-0.2,0.4-0.4V1.7C206.6,1.5,206.4,1.3,206.2,1.4C206.2,1.3,206.2,1.3,206.2,1.4L206.2,1.4z M114.5,1.4h-10
	c-0.2,0-0.4,0.2-0.4,0.4c0,0,0,0,0,0v15.4c0,0.2,0.2,0.4,0.4,0.4h2.8c0.2,0,0.4-0.2,0.4-0.4v-4.6h6.8c3.1,0,5.5-1.8,5.5-4.5V6.3
	C120,3.5,117.6,1.3,114.5,1.4L114.5,1.4z M116.4,9.4c0,0.2-0.2,0.4-0.4,0.4l0,0h-8.3V4.2h8.3c0.2,0,0.4,0.2,0.4,0.4c0,0,0,0,0,0V9.4
	z M125.5,1.4h-2.7c-0.2,0-0.4,0.2-0.4,0.4c0,0,0,0,0,0v15.4c0,0.2,0.2,0.4,0.4,0.4h2.7c0.2,0,0.4-0.2,0.4-0.4V1.7
	C125.9,1.5,125.8,1.3,125.5,1.4C125.5,1.3,125.5,1.3,125.5,1.4L125.5,1.4z M145.3,1.4h-2.5c-0.2,0-0.4,0.2-0.4,0.4c0,0,0,0,0,0v11.1
	c-1.3-1.4-9.7-11-9.9-11.2c-0.2-0.2-0.5-0.3-0.7-0.3h-2.4c-0.2,0-0.4,0.2-0.4,0.4c0,0,0,0,0,0v15.4c0,0.2,0.2,0.4,0.4,0.4h2.5
	c0.2,0,0.4-0.2,0.4-0.4V5.9c0.9,1,9.8,11.1,10,11.3c0.2,0.2,0.5,0.3,0.7,0.3h2.4c0.2,0,0.4-0.2,0.4-0.4v0V1.7
	C145.7,1.5,145.5,1.3,145.3,1.4C145.3,1.3,145.3,1.3,145.3,1.4L145.3,1.4z"/>
<path class="st1" d="M176.6,12.7h4.1c0.2,0,0.4,0.2,0.4,0.4v4.1c0,0.2-0.2,0.4-0.4,0.4h-4.1c-0.2,0-0.4-0.2-0.4-0.4v-4.1
	C176.2,12.8,176.4,12.7,176.6,12.7z"/>
</svg>
