<svg id="图层_1" data-name="图层 1" xmlns="http://www.w3.org/2000/svg" viewBox="0 0 206 206"><defs><style>.cls-1{fill:none;}.cls-2{fill:#efba35;}.cls-3{fill:#fff;}</style></defs><title>logo_yp</title><rect class="cls-1" width="206" height="206"/><rect class="cls-2" x="-368.43" y="426.47" width="18.19" height="37.65" rx="6.97" transform="translate(-31.12 -496.67) rotate(-45)"/><rect class="cls-3" x="80.15" y="103.23" width="18" height="18" rx="4.5"/><path class="cls-3" d="M-206.61,439.36a36.88,36.88,0,0,0-52.15,0,36.63,36.63,0,0,0-9.62,16.82l-25-25a9.1,9.1,0,0,0-8.27-2.47,9,9,0,0,0-4.78,2.5l-39.71,39.26a9.05,9.05,0,0,0-2.65,6.27,8.77,8.77,0,0,0-.06,1v36.69a9.12,9.12,0,0,0,9.09,9.09h0a9.12,9.12,0,0,0,9.09-9.09V480.71l30.78-30.32,30.33,30.32v33.75a9.12,9.12,0,0,0,9.09,9.09,9.12,9.12,0,0,0,9.09-9.09V497.23a36.9,36.9,0,0,0,44.77-5.72A36.88,36.88,0,0,0-206.61,439.36Zm-39.3,39.29a18.7,18.7,0,0,1,0-26.43,18.7,18.7,0,0,1,26.44,0,18.69,18.69,0,0,1,0,26.43A18.7,18.7,0,0,1-245.91,478.65Z" transform="translate(389 -373)"/></svg>