<?xml version="1.0" encoding="utf-8"?>
<!-- Generator: Adobe Illustrator 23.1.1, SVG Export Plug-In . SVG Version: 6.00 Build 0)  -->
<svg version="1.1" id="图层_1" xmlns="http://www.w3.org/2000/svg" xmlns:xlink="http://www.w3.org/1999/xlink" x="0px" y="0px"
	 viewBox="0 0 200 200" style="enable-background:new 0 0 200 200;" xml:space="preserve">
<style type="text/css">
	.st0{fill:url(#SVGID_1_);}
</style>
<g>
	<g>
		<path d="M90.6,95.2c0-0.5-0.1-0.9-0.1-1.4c0-0.3,0-0.6-0.1-0.8c0-0.6-0.1-1.1-0.2-1.7c-2.7-21.5-13.4-38.3-26.9-42
			c7.6,6.6,15.2,18.8,18.8,33.3c0.5,2.1,1,4.3,1.3,6.5c0.4,2.5,0.6,5.1,0.6,8c0,0.7,0,1.3,0,2v0.9c-0.1,6.3-1.1,13.1-2.9,20
			c-1.1,4.4-2.6,8.6-4.2,12.3c0,0,0,0.1-0.1,0.1c-5.5,12.8-13.3,21-20.3,21.1c-0.3,0-0.6,0-0.9,0c-0.6,0-1.2-0.2-1.8-0.3
			c-0.3-0.1-0.6-0.2-0.9-0.3c-2.5-1.1-4.5-3.2-6.1-6.2c0-0.1-0.1-0.2-0.2-0.3c-0.2-0.4-0.4-0.7-0.5-1.1c0,0,0,0,0-0.1
			c-0.2-0.5-0.4-1-0.6-1.5c0,0,0-0.1,0-0.1c-0.2-0.5-0.4-1.1-0.6-1.7c-0.1-0.4-0.2-0.8-0.4-1.2c0-0.2-0.1-0.4-0.2-0.6
			c-0.2-0.6-0.3-1.1-0.4-1.7c0,0,0,0,0-0.1c0-0.1,0-0.2,0-0.3c-0.1-0.5-0.2-1.1-0.3-1.7c0-0.2-0.1-0.5-0.1-0.8
			c-0.3-1.6-0.4-3.3-0.5-5.1c-0.1,2.7,0,5.2,0.4,7.6c0,0.2,0.1,0.5,0.1,0.7c0.1,0.5,0.2,1,0.3,1.5c0,0.1,0,0.2,0,0.2c0,0,0,0,0,0.1
			c0.1,0.5,0.2,1,0.4,1.5c0,0.2,0.1,0.4,0.2,0.5c0.1,0.4,0.2,0.7,0.4,1.1c0.2,0.5,0.4,1,0.6,1.5c0,0,0,0.1,0,0.1
			c0.2,0.4,0.4,0.9,0.6,1.3c0,0,0,0.1,0,0.1c0.2,0.4,0.3,0.7,0.5,1c0.1,0.1,0.1,0.2,0.2,0.3c1.7,2.7,3.9,4.7,6.6,5.8
			c0.3,0.1,0.7,0.2,1,0.3c0.7,0.2,1.3,0.3,2,0.4c10.5,1.1,23.5-11.2,30.3-29.3c2.3-6.2,3.6-12.3,4.1-17.9c0-0.3,0-0.5,0-0.8
			c0-0.6,0.1-1.2,0.1-1.8c0-1,0.1-2,0.1-3C90.9,99.5,90.8,97.3,90.6,95.2z"/>
		<path d="M133.2,55c-0.4,3.9-2.1,8.2-4.8,12.4c0,0,0,0,0,0c-1.9,2.9-4.2,5.8-7,8.5c-4,3.9-8.8,7.4-14.2,10.5
			c-1.8,1.1-3.8,2.1-5.8,3c-3.4,1.6-7,3-10.8,4.3c-0.3,0.1-0.5,0.2-0.8,0.2c-1.4,0.5-2.7,0.9-4.1,1.3c-0.5,0.1-1,0.3-1.4,0.4
			c-23.1,7-37.3,19.2-39.8,33.8c0,0,0,0,0,0c-0.5,2.9-0.5,6-0.1,9.1c0.5,3.6,1.8,6.7,3.3,9.3c0.5,0.9,1.6,2.4,3.2,3.5
			c0.5,0.3,1.6,1.2,2.7,1.5c3.1,0.9,4,0.3,4.8,0.3c-0.4,0.4-1,0.5-2,1.3c-0.7-0.1-1.3-0.2-2-0.4c-0.3-0.1-0.7-0.2-1-0.3
			c-2.7-1-5-3-6.6-5.8c0-0.1-0.1-0.2-0.2-0.3c-0.2-0.3-0.4-0.6-0.5-1c0,0,0,0,0-0.1c-0.2-0.4-0.4-0.9-0.6-1.3c0,0,0-0.1,0-0.1
			c-0.2-0.5-0.4-1-0.6-1.5c-0.1-0.4-0.2-0.7-0.4-1.1c0-0.2-0.1-0.4-0.2-0.5c-0.1-0.5-0.3-1-0.4-1.5c0,0,0,0,0-0.1c0-0.1,0-0.2,0-0.2
			c-0.1-0.5-0.2-1-0.3-1.5c-0.2-1.3-0.4-3.3-0.2-5.6v-0.1c0.5-10.2,6.7-28.1,40.8-38.3c0.4-0.1,0.8-0.3,1.3-0.4
			c1.4-0.4,2.8-0.8,4.2-1.3c0.3-0.1,0.6-0.2,0.9-0.3c3.7-1.3,7.3-2.8,10.9-4.5c2-1,3.9-2,5.8-3.1c10-5.7,18.6-13.2,22.7-21.7v0
			c0,0,0,0,0,0c1.3-2.8,2.2-5.6,2.5-8.6c0.4-4-0.7-7-2.9-8.2c-0.9-0.5-2.1-0.7-3.3-0.5c-0.3,0-0.7,0.1-1,0.2
			c-1.6,0.4-3.4,1.4-5.4,2.8c0,0-0.1,0-0.1,0.1c-0.4,0.3-0.8,0.6-1.2,0.9l-0.5-0.6c2.9-2.5,5.7-3.9,8.1-4.2c0.4,0,0.7-0.1,1-0.1
			c1,0,1.9,0.2,2.8,0.7c0.3,0.1,0.5,0.3,0.8,0.5C132.6,48.2,133.6,51.2,133.2,55z"/>
		<linearGradient id="SVGID_1_" gradientUnits="userSpaceOnUse" x1="57.4256" y1="122.8873" x2="125.3371" y2="54.9759">
			<stop  offset="0.15" style="stop-color:#000000"/>
			<stop  offset="0.5" style="stop-color:#666666"/>
			<stop  offset="0.85" style="stop-color:#000000"/>
		</linearGradient>
		<path class="st0" d="M130.2,62.8c-1.6,3.2-5.2,6.7-7.6,9.3c-6.6,6.9-15,11.9-23.7,15.8c-11.9,5.4-25.3,6.8-36.5,13.8
			c-6.8,4.3-12.7,10.3-16.1,17.6c-1.7,3.5-3.1,7.2-3.3,11.1c0,0.6-0.1,2.5,0.2,3c0.2,0.5,0.3-0.2,0.3-0.7c0-0.4-0.1,0.4,0-0.3
			c0.1-0.4,0.2-1.1,0.3-1.7c0.5-2.3,1.1-4.6,2.1-6.7c3.2-7.3,8.9-13.3,15.5-17.7c10.8-7.1,23.6-8.6,35.4-13.6
			c9-3.8,17.5-9,24.5-15.9c2.9-2.9,5.6-6.4,7.4-10.1C129,66.1,130.2,62.8,130.2,62.8z"/>
		<path d="M155.8,99.4c0.7-0.1,1.3,0.5,1.2,1.2c-0.1,1.7-0.2,3.3-0.4,4.9c-1.1,8.6-3.6,16.2-7,22.1c-0.1,0.3-0.3,0.5-0.4,0.8
			c-0.3,0.5-0.7,1.1-1,1.6c-0.1,0.1-0.1,0.2-0.2,0.3c0,0,0,0,0,0.1c-0.4,0.5-0.8,1.1-1.2,1.6c-0.1,0.2-0.3,0.4-0.4,0.5
			c-0.3,0.4-0.6,0.7-0.9,1.1c-0.5,0.5-0.9,1-1.4,1.5c0,0,0,0.1-0.1,0.1c-0.4,0.4-0.9,0.8-1.3,1.2c0,0,0,0.1-0.1,0.1
			c-0.4,0.3-0.7,0.6-1.1,0.9c-0.1,0-0.2,0.1-0.3,0.2c-3.3,2.3-7,3.5-10.9,3.4c-0.4,0-0.9-0.1-1.4-0.1c-0.9-0.1-1.8-0.3-2.6-0.6
			c-13.6-3.8-24.4-24.1-24.9-48.1c0-0.9,0-1.7,0-2.5c0-0.4,0-0.7,0-1c0.1-6.8,1.1-13.2,2.8-18.8c0.1-0.3,0.2-0.6,0.3-0.9
			c0.2-0.7,0.4-1.4,0.7-2.1c1.4-3.9,3.1-7.4,5.1-10.3c0.3-0.5,0.6-0.9,1-1.4c0.2-0.3,0.4-0.5,0.6-0.8c0.4-0.6,0.9-1.1,1.4-1.6
			c3.7-4,8-6.6,12.6-7.1c0.1,0,0.2,0,0.3,0c0.4,0,0.7-0.1,1-0.1c1,0,1.9,0.2,2.8,0.7c0.3,0.1,0.5,0.3,0.8,0.5
			c-1.4-0.4-2.9-0.5-4.4-0.3c0,0-0.1,0-0.1,0c-0.3,0-0.7,0.1-1,0.2c-0.2,0-0.4,0.1-0.7,0.2c-1.6,0.5-3.2,1.4-4.7,2.6
			c0,0-0.1,0-0.1,0.1c-1.6,1.4-3.1,3.2-4.5,5.3c-0.4,0.5-0.7,1.1-1,1.6c-0.2,0.3-0.3,0.5-0.4,0.8c-0.2,0.4-0.5,0.9-0.7,1.4
			c-1.4,2.9-2.6,6.3-3.6,10c-0.2,0.6-0.3,1.3-0.5,1.9c-0.1,0.3-0.1,0.6-0.2,0.8c-0.9,4.4-1.5,9.2-1.6,14.2c0,0.4,0,0.7,0,1.1
			c0,1.7,0,3.5,0,5.2c0.9,21.5,9.4,38.3,19.7,39.9c0.7,0.1,1.3,0.1,2,0.1c0.3,0,0.7,0,1-0.1c2.9-0.4,5.6-1.9,8.1-4.5
			c0.1-0.1,0.1-0.2,0.2-0.2c0.3-0.3,0.5-0.6,0.8-0.9c0,0,0,0,0.1-0.1c0.3-0.4,0.7-0.8,1-1.3c0,0,0.1,0,0.1-0.1c0.4-0.5,0.7-1,1-1.5
			c0.2-0.3,0.4-0.7,0.7-1.1c0.1-0.2,0.2-0.4,0.3-0.6c0.3-0.5,0.6-1,0.8-1.6c0,0,0,0,0-0.1c0-0.1,0.1-0.2,0.1-0.3
			c0.2-0.5,0.5-1,0.7-1.6c0.1-0.2,0.2-0.5,0.3-0.7c1.1-2.5,2-5.3,2.8-8.3c0.3-1.1-0.6-2.1-1.7-1.9l0,0c-0.6,0.1-1.2-0.2-1.5-0.7
			l-2.4-3.7c-0.5-0.7,0-1.6,0.8-1.7l6.4-0.6L155.8,99.4z"/>
	</g>
	<g>
		<path d="M111.6,100.1c0.6,1,1.4,1.3,4.2,0.8l4.4-0.7c1-0.2,1.2-0.3,1.1-1.4l0.2,0l0.5,3l-0.2,0c-0.2-1-0.5-1.1-1.4-0.9l-4.9,0.8
			c-2.5,0.4-3.2-0.2-4-1.5L111.6,100.1z"/>
		<path d="M119,105.2l1.7,5.1l2-0.7c0.9-0.3,1.1-0.5,0.8-1.5l0.2-0.1l0.9,2.9l-0.2,0.1c-0.4-1-0.6-1.1-1.6-0.8l-4.8,1.6
			c-1,0.3-1.1,0.5-0.8,1.5l-0.2,0.1l-1-3l0.2-0.1c0.4,1.1,0.7,1.2,1.6,0.8l2.4-0.8l-1.7-5.1l-2.4,0.8c-1,0.3-1.1,0.5-0.8,1.6
			l-0.2,0.1l-0.9-2.9l0.2-0.1c0.4,1,0.6,1,1.6,0.7l4.8-1.6c0.9-0.3,1.1-0.5,0.8-1.6l0.2-0.1l0.9,2.9l-0.2,0.1c-0.4-1-0.6-1-1.6-0.7
			L119,105.2z"/>
		<path d="M118.7,115.4c0.3-0.2,0.6-0.1,0.8,0.2c0.2,0.3,0,0.6-0.2,0.8c-0.3,0.2-0.6,0.1-0.8-0.2
			C118.3,115.9,118.4,115.6,118.7,115.4z"/>
		<path d="M128,123.3c-0.6-0.5-0.7-0.4-1.2-0.1L126,124c-0.3,0.3-0.6,0.5-0.8,0.8c-0.7-0.5-1.6-1.1-2.3-1.9
			c-1.8-2.1-1.8-4.7,0.1-6.3c2.1-1.8,4.8-0.9,6.4,1c0.7,0.8,1.2,1.7,1.3,2.1c-0.3,0.3-0.8,0.8-1.3,1.4l-0.2-0.1
			c1-1.4,0.6-2.3-0.3-3.3c-1.6-1.9-3.5-1.9-5.3-0.4c-1.4,1.1-2.4,3.3-0.6,5.5c0.4,0.5,0.9,0.9,1.2,1.1c0.3,0.2,0.6,0.2,1-0.1
			l0.8-0.7c0.6-0.5,0.7-0.7-0.1-1.9l0.1-0.1l1.9,2.3L128,123.3z"/>
	</g>
</g>
</svg>
