<svg id="图层_1" data-name="图层 1" xmlns="http://www.w3.org/2000/svg" viewBox="0 0 397 397"><defs><style>.cls-1{fill:none;}.cls-2{fill:#8a4103;}.cls-3{fill:#e56005;}.cls-4{fill:#ffc380;}.cls-5{fill:#0057ce;}.cls-6{fill:#4cd8f0;}.cls-7{fill:#ffc82c;}.cls-8{fill:#dda21d;}.cls-9{fill:#4def87;}</style></defs><title>logo_paws3</title><rect class="cls-1" width="397" height="397"/><path class="cls-2" d="M-219.19,660.57c-2.47,0-3.49.17-3.84.4,0,.16,0,.32,0,.48a1.2,1.2,0,0,0,.32.23c3.93,1.08,6.17,3.49,2.55,6.5a20.26,20.26,0,0,1-2.5,1.79,22,22,0,0,1-4.6,2.1c-.36.12-.72.22-1.09.32a20,20,0,0,1-5.26.7,29.42,29.42,0,0,0,4.18-6.63A32.29,32.29,0,0,0-226.59,653a32.28,32.28,0,0,0-2.79-13.24,64.54,64.54,0,0,0-5.05-7.65,54.32,54.32,0,0,0,1.72-8.81,85.92,85.92,0,0,0,.15-9.55,75.83,75.83,0,0,0-3.89-22,26.38,26.38,0,0,1-1.9-4.35c-.07-.18-.13-.36-.19-.54v0a36.14,36.14,0,0,1-1.5-7.26c0-.35-.06-.7-.09-1a21.68,21.68,0,0,1,.12-6.18,5.46,5.46,0,0,1,1.76-3.07c1.35-1.08,2.41-1.77,3.09-3.44a9.35,9.35,0,0,0,.33-5.68,9.66,9.66,0,0,0-1-2.64,7.58,7.58,0,0,0-.82-1.18l-1.39-1.68a.78.78,0,0,1-.21-.35.82.82,0,0,1,0-.27,26.5,26.5,0,0,1,.93-4.17,40.26,40.26,0,0,0,.57-4.64,55.08,55.08,0,0,0,.1-9.08c-.25-3.2-.59-8.76-3.56-10.84a2,2,0,0,0-1.13-.37c-4.49,0-13.48,7.22-16.59,18.18,0,.14-.09.29-.13.43a35.36,35.36,0,0,0-3.75-.2c-1,0-2,0-2.92.11h-.05l-.64.06-.26,0c-.12-.45-.25-.9-.4-1.34a30.51,30.51,0,0,0-8.47-13.33c-2.91-2.65-5.87-4.13-7.91-4.13-2.85,0-4.83,6.58-4.83,15.06,0,.22,0,.43,0,.65,0,.8,0,1.6.08,2.38,0,.21,0,.41,0,.62,0,.39,0,.78.08,1.16.13,1.65.35,3.34.64,5,.27,1.47.92,2.77.86,4.3a1.27,1.27,0,0,1,0,.28,1,1,0,0,1-.21.32l-1.37,1.63a7.37,7.37,0,0,0-1.34,2.28A10.43,10.43,0,0,0-289,560a9,9,0,0,0-.25,1.6,1.37,1.37,0,0,0,0,.19,7.72,7.72,0,0,0,3.3,7c3.1,2.38,2.53,6.9,2.2,10.34,0,.08,0,.17,0,.25a36.73,36.73,0,0,1-1,5.6c-.14.5-.27,1-.43,1.48-.5,1.61-1.09,3.21-1.61,4.81-.3,1-.59,1.9-.87,2.86q-.8,2.72-1.42,5.46c-.39,1.7-.74,3.41-1,5.13-.27,1.57-.49,3.16-.67,4.76s-.29,2.91-.38,4.37a1.28,1.28,0,0,1,0,.19v0a81.68,81.68,0,0,0,1,16.19.37.37,0,0,0,0,.09c.27,1.31.49,2,.49,2a1,1,0,0,0-.09.13.5.5,0,0,0,0,.12c-.19.21-.38.43-.55.66a49.21,49.21,0,0,0-5.4,10.2,32.52,32.52,0,0,0-1.42,9.57,32.18,32.18,0,0,0,2.88,13.42c3.28,7.19,9.12,12.57,16.11,14.53,2.71.29,5.58.51,8.57.65q3.78.18,7.77.18c2.75,0,5.43-.06,8-.2a35.57,35.57,0,0,0,3.87.14c1.15,0,2.29-.06,3.43-.09A91.45,91.45,0,0,0-230,679.9c6.3-1.41,13.69-4.64,15.43-11.49C-213.73,665.26-215.17,660.61-219.19,660.57Zm-58.95-92.28.05,0,.26.24Zm32.36.14h0l0,0S-245.79,568.43-245.78,568.43Z" transform="translate(514.5 -341.5)"/><path class="cls-3" d="M-262.21,575.87a49.63,49.63,0,0,1,22.38,5.29c-.08-.53-.15-1.06-.21-1.6,0-.35-.06-.7-.09-1a25.48,25.48,0,0,1,0-5.24,49.56,49.56,0,0,0-22-5.13A49.66,49.66,0,0,0-283.72,573a24.66,24.66,0,0,1-.1,6.14c0,.08,0,.17,0,.25-.05.5-.12,1-.19,1.49A49.72,49.72,0,0,1-262.21,575.87Z" transform="translate(514.5 -341.5)"/><path class="cls-4" d="M-416.54,579s-3.75,22.79,2.34,29.81c0,0,.93,2.81,7.33,3.43a42.38,42.38,0,0,1,10.93,2.5l4.21-21.23-4.52-1.87s.46-6.4.62-8.74C-395.63,582.9-403.12,587.43-416.54,579Z" transform="translate(514.5 -341.5)"/><path class="cls-4" d="M-269.9,563.62s8,16.85,16.39,20.76,18.26,15.14,20.92,16.85c2,1.28,3.89,2.67,5.81,4a21.06,21.06,0,0,1,6,5.8c1.44,2.25,2.84,5,2.82,7.72a6.05,6.05,0,0,0,.18,1.41c.34,1.35.78,4.23-1.21,5.73a7.16,7.16,0,0,1-3.23,3.73,7.21,7.21,0,0,1-2.89,2.07,9.31,9.31,0,0,1-4.31,2.81,5.3,5.3,0,0,1-4.93-1.49,3.28,3.28,0,0,1-.38-2.08,11.11,11.11,0,0,1,.47-2.86c.7-3.59,3.9-8.52-1.2-9.63,0,0-36.68-11.42-42-24l-13.08-20.53S-283.4,575.15-269.9,563.62Z" transform="translate(514.5 -341.5)"/><path class="cls-5" d="M-400,643.09a34,34,0,0,0-.4,5.18A33.42,33.42,0,0,0-367,681.69c.85,0,1.69,0,2.51-.1v0c4.87-.32,10-.5,15.2-.5,5.73,0,16.57.49,16.57.49.74,0,1.49.08,2.24.08a33.43,33.43,0,0,0,33.42-33.42,34,34,0,0,0-.4-5.18Z" transform="translate(514.5 -341.5)"/><path class="cls-6" d="M-269.5,565.92s-16.23,13.82-24.42,8.68l-1.83-2.07s-7.95-10.92-10.59-11.33-4.69,1.84-4.38,5.13c0,0,2.73,31,7,44.29,2.92,9,7.5,20.81,6.66,32.86,0,.18,0,.37,0,.55a1.1,1.1,0,0,1,0,.18c-1.38,10.82-24,19.41-51.62,19.41-27.18,0-49.45-8.3-51.52-18.85v0c0-.36-.08-.72-.1-1.09v0c0-.17,0-.35,0-.53a1.21,1.21,0,0,1,0-.19c0-.19.05-.51.09-1a274.87,274.87,0,0,1,5.87-35.3c4.85-21.36-1.35-44.93-1.64-46,.15,1,3.33,21.55,2.59,22.77s-3.85,4.11-14.27,2-9.83-8.82-9.83-8.82l4.74-60.6s.74-6.21,8.68-12.29,29.56-11.43,29.56-11.43,8.82-.37,6.59-17.13l33-2.11s-4.48,9.44,4.47,17.38,27.32,2,38.25,18.38a195.76,195.76,0,0,1,15.9,35s6.79,17.63,7.7,19.29S-269.5,565.92-269.5,565.92Z" transform="translate(514.5 -341.5)"/><ellipse class="cls-7" cx="164.75" cy="108.72" rx="59.34" ry="42.49"/><ellipse class="cls-8" cx="163.71" cy="91.91" rx="32.48" ry="28.12"/><ellipse class="cls-7" cx="163.71" cy="84.13" rx="32.48" ry="27.45"/><path class="cls-9" d="M-400.3,641.94a7.77,7.77,0,0,0-.09,1C-400.37,642.72-400.34,642.4-400.3,641.94Z" transform="translate(514.5 -341.5)"/><path class="cls-9" d="M-400.35,643.65c0,.37.06.73.1,1.09a9.39,9.39,0,0,1-.15-1.58v-.06c0,.18,0,.36,0,.53Z" transform="translate(514.5 -341.5)"/></svg>