<svg id="图层_1" data-name="图层 1" xmlns="http://www.w3.org/2000/svg" viewBox="0 0 397 397"><defs><style>.cls-1{fill:none;}.cls-2,.cls-5{fill:#f7b600;}.cls-3{fill:#8c6500;}.cls-4{fill:#ffce5c;}.cls-5{fill-rule:evenodd;}</style></defs><title>logo_paws1</title><rect class="cls-1" width="397" height="397"/><path class="cls-2" d="M-468,466.82c-.73-1.92-2.33-3.25-5.17-2.45a10.27,10.27,0,0,0-4.71,3.47c-7.63,8.64-12.2,19.18-16,29.7-4,10.92-7.69,21.83-8.83,33.39-.73,7.42-.4,15.17,3,21.92s10.25,12.3,18.17,12.68c8.54.41,16.19-5,21.77-11.12,7.85-8.57,13.25-18.87,17.91-29.29,4.51-10.09,8.46-20.65,8.63-31.59,0-2.5-.5-5.52-3-6.45-8.34-3.15-14.2,12.2-16.56,17.19-6.08,12.87-10.53,27.74-9.25,41.92,1.12,12.48,10.34,23.94,24.8,17.82a43.51,43.51,0,0,0,11-7.38,161,161,0,0,0,29.75-33c7.73-11.6,16.41-26.92,16.71-40.88.13-6.42-2.74-15.5-9.69-18.25-5.12-2-14.87-1-15.3,5.53-.22,3.34,2.56,6.08,4.6,8.83,7.19,9.68,4.73,21.48-.64,31.46-7.94,14.77-20.86,28.2-35.3,37.57-4.6,3-10.74,5.64-15.48,2.89-7.14-4.13-4.69-15.58-3.69-21.93a88.1,88.1,0,0,1,9.68-28.44,8.84,8.84,0,0,1,2.89-3.54c1.35-.82,3.37-.86,4.37.32s.64,2.67.29,4c-3.82,14.93-9.23,29.83-19.08,42.09-4.85,6.05-11.73,11.75-19.78,11.43a18.2,18.2,0,0,1-14-8.2A25.93,25.93,0,0,1-494.81,531c.42-10.46,5.27-20.31,10.79-29.41,5.73-9.43,13.43-18.73,16.2-29.46A9.34,9.34,0,0,0-468,466.82Z" transform="translate(649.5 -254.5)"/><path class="cls-2" d="M-278.08,444.43l.16-.12c6.46-5,10.83-14.79-.07-17.56-13.06-3.31-27.52-4.22-40.57-.5-28.95,8.26-32.84,37.07-36,62.84-1.57,12.82-3.56,25.88-9.49,37.37s-16.5,21.3-29.3,23.07c-2.86.4-5.8.4-8.57,1.22s-5.45,2.71-6.21,5.49.69,5.88,3,7.65c7.1,5.46,18.67,1.36,25.73-2.13a66.58,66.58,0,0,0,28.67-27.64c7.62-14,5.56-29.67,4.91-44.92-.44-10.33.87-21.53,7.84-29.17,10-11,26.8-8.9,40.29-9.86C-290.89,449.69-283.68,448.64-278.08,444.43Z" transform="translate(649.5 -254.5)"/><path class="cls-3" d="M-492.88,393.27a37.49,37.49,0,0,1-.77,9.52c-5.89-.84-5.91-9.32-5.91-9.32C-496.32,391-494.13,392-492.88,393.27Z" transform="translate(649.5 -254.5)"/><circle class="cls-3" cx="106.1" cy="118.34" r="3.83"/><path class="cls-4" d="M-553.77,338.07c-.67,8.42-3.68,37-14.19,46.61-9,8.26-16.32-17.26-19.6-31.65a54.38,54.38,0,0,1,22.45-13A53.91,53.91,0,0,1-553.77,338.07Z" transform="translate(649.5 -254.5)"/><path class="cls-5" d="M-493.65,402.79c-.11.49-.23,1-.35,1.46-8.09,30.49-54.67,14.3-87.22,28.69s-33,80.59-31.33,104.09-17.94,57.55-18.1-3.07c-.14-51.78,4.41-144.26,42.8-180.67l.29-.26c3.28,14.39,10.57,39.91,19.6,31.65,10.51-9.61,13.52-38.19,14.19-46.61,33.48-2.15,59.75,28.81,60.89,55.2-1.25-1.27-3.44-2.32-6.68.2C-499.56,393.47-499.54,402-493.65,402.79Zm-45.92-30a3.83,3.83,0,0,0-3.88-3.78,3.83,3.83,0,0,0-3.78,3.89,3.84,3.84,0,0,0,3.89,3.78A3.84,3.84,0,0,0-539.57,372.78Z" transform="translate(649.5 -254.5)"/><path class="cls-2" d="M-524.64,462.45a13,13,0,0,0-3.65-2.91c-12.43-6.77-30.76,6.87-39.25,14.43-.51.46-1,.93-1.51,1.4-11.32,10.85-19.51,24.4-25.29,38.51s-15.47,57.4,14.68,51.7c32.41-6.13,49.58-38.83,55.72-66.53C-521.81,489.48-517,471.27-524.64,462.45Zm-11.7,38.83c-2.52,8-6.84,15.28-10.81,22.6C-552.24,533.27-559,544.14-569,549c-5,2.44-12,2.79-15.43-1.54a13,13,0,0,1-2.35-7c-1.73-16.77,7.2-33.46,18.21-45.73,5.81-6.48,18.37-21.31,28.61-19C-530.66,478-534.45,495.35-536.34,501.28Z" transform="translate(649.5 -254.5)"/><path class="cls-2" d="M-522.56,493c-2.24,16.4-5.15,32.56-3.71,49.2.45,5.16,1.39,10.58,4.71,14.56l0,0,0,0c3,3.53,1,6.72-3.52,7.2-5.54.58-10.56-4-12.4-9.24-3.56-10.15.09-23,2.61-33a107.17,107.17,0,0,1,5.11-15.39C-528.11,502.65-523.08,496.83-522.56,493Z" transform="translate(649.5 -254.5)"/></svg>