<svg xmlns="http://www.w3.org/2000/svg" xmlns:xlink="http://www.w3.org/1999/xlink" width="220" height="220" viewBox="0 0 220 220">
  <defs>
    <clipPath id="clip-path">
      <path id="路径_22" data-name="路径 22" d="M260.008,445.768a5.013,5.013,0,0,0-5-4.693H235.733c-3.869-12.881-14.788-22.176-27.678-22.176s-23.809,9.3-27.676,22.176H161.1a5.014,5.014,0,0,0-5,4.693L151,525.679a5.012,5.012,0,0,0,5,5.333H260.112a5.014,5.014,0,0,0,5-5.333Zm-51.954-24.045c9.628,0,17.893,7.959,21.55,19.352h-43.1C190.163,429.682,198.428,421.723,208.055,421.723Z" transform="translate(-150.985 -418.899)" fill="none"/>
    </clipPath>
    <radialGradient id="radial-gradient" cx="59.371" cy="103.602" fx="43.15127652555111" r="49.383" gradientTransform="translate(-44.231 -77.184) scale(1.745 1.745)" gradientUnits="userSpaceOnUse">
      <stop offset="0.401" stop-color="#fff" stop-opacity="0"/>
      <stop offset="0.537" stop-color="#fff" stop-opacity="0.008"/>
      <stop offset="0.601" stop-color="#fff" stop-opacity="0.039"/>
      <stop offset="0.65" stop-color="#fff" stop-opacity="0.09"/>
      <stop offset="0.691" stop-color="#fff" stop-opacity="0.161"/>
      <stop offset="0.728" stop-color="#fff" stop-opacity="0.255"/>
      <stop offset="0.761" stop-color="#fff" stop-opacity="0.369"/>
      <stop offset="0.769" stop-color="#fff" stop-opacity="0.4"/>
    </radialGradient>
    <radialGradient id="radial-gradient-2" cx="103.603" cy="59.371" fx="116.44486262901773" fy="-13.368610073459422" r="177.587" gradientTransform="translate(137.626 0) rotate(90) scale(0.573 0.573)" gradientUnits="userSpaceOnUse">
      <stop offset="0.401" stop-color="#fff" stop-opacity="0"/>
      <stop offset="0.523" stop-color="#fff" stop-opacity="0.008"/>
      <stop offset="0.58" stop-color="#fff" stop-opacity="0.039"/>
      <stop offset="0.624" stop-color="#fff" stop-opacity="0.09"/>
      <stop offset="0.661" stop-color="#fff" stop-opacity="0.161"/>
      <stop offset="0.694" stop-color="#fff" stop-opacity="0.255"/>
      <stop offset="0.723" stop-color="#fff" stop-opacity="0.369"/>
      <stop offset="0.73" stop-color="#fff" stop-opacity="0.4"/>
    </radialGradient>
  </defs>
  <g id="组_172" data-name="组 172" transform="translate(-1044 -2333)">
    <rect id="矩形_81" data-name="矩形 81" width="220" height="220" transform="translate(1044 2333)" fill="#fff"/>
    <g id="组_171" data-name="组 171" transform="translate(18.043 27.837)">
      <g id="组_145" data-name="组 145" transform="translate(1079.169 2350)">
        <path id="路径_21" data-name="路径 21" d="M260.008,445.768a5.013,5.013,0,0,0-5-4.693H235.733c-3.869-12.881-14.788-22.176-27.678-22.176s-23.809,9.3-27.676,22.176H161.1a5.014,5.014,0,0,0-5,4.693L151,525.679a5.012,5.012,0,0,0,5,5.333H260.112a5.014,5.014,0,0,0,5-5.333Zm-51.954-24.045c9.628,0,17.893,7.959,21.55,19.352h-43.1C190.163,429.682,198.428,421.723,208.055,421.723Z" transform="translate(-150.985 -418.899)" fill="#0392e0"/>
        <g id="组_144" data-name="组 144" transform="translate(0 0)" opacity="0.78">
          <g id="组_143" data-name="组 143" clip-path="url(#clip-path)">
            <ellipse id="椭圆_5" data-name="椭圆 5" cx="59.371" cy="103.602" rx="59.371" ry="103.602" transform="translate(-117.468 29.569) rotate(-30)" fill="url(#radial-gradient)"/>
            <ellipse id="椭圆_6" data-name="椭圆 6" cx="103.602" cy="59.371" rx="103.602" ry="59.371" transform="matrix(0.806, -0.591, 0.591, 0.806, -8.157, 101.215)" fill="url(#radial-gradient-2)"/>
          </g>
        </g>
      </g>
      <g id="组_149" data-name="组 149" transform="translate(1104.139 2379.046)">
        <g id="组_146" data-name="组 146" transform="translate(0 1.671)" opacity="0.2">
          <path id="路径_23" data-name="路径 23" d="M174.641,456.222s-10.546,0-8.437,8.438c1.82,7.284,14.91,1.446,18.6-.353a.69.69,0,0,1,1,.565c.089,2.552,1.716,10.522,5.139,5.452a5.693,5.693,0,0,0,.573-2.766l.358-3.561c0-.938.282-1.606,1.192-1.833l9.025-2.256a1.986,1.986,0,0,1,2.452,1.668c.374,2.769.709,7.618-.769,11.254a.257.257,0,0,0,.416.289,36.721,36.721,0,0,0,8.507-13.609,3.411,3.411,0,0,1,2.811-1.944l8.706-1.344c2.109,0,5.794-2.43-3-2.522l-5.251-.042a2.328,2.328,0,0,1-2.133-2.286l-.165-7.3a5.475,5.475,0,0,0-1.574-3.856c-2.442-2.47-6.864-5.89-6.864,1.745a60.778,60.778,0,0,1-.6,10.6c-.155,1.08-1.056,1.377-2.148,1.377l-9.563.5a1.277,1.277,0,0,1-1.277-1.279l-.125-3.271c.232-.7-2.006-10.862-5.273,0l-.64,3.2a2.858,2.858,0,0,1-2.519,2.285Z" transform="translate(-165.925 -437.279)" fill="#042e99"/>
          <path id="路径_24" data-name="路径 24" d="M197.65,460.386c-.961,1.489-2.885,4.374-3.986,6.08a5.805,5.805,0,0,1-2.574,1.86c-3.8.4-12.237.052-8.918,6.311,0,0,1.456,2.569,6.653,1.2a.5.5,0,0,1,.5.729c-.65,1.64-2.016,11.057,5.93,13.571,6.8,1.668,12.538,1.68,17.3.339,3.971-1.116,6.876-4.955,7.135-10.546.309-6.7-1.178-10.173-2.413-12.53-.07-.134-.254-.115-.247.035.515,11.92-7.008,17.789-18.327,15.989a2.864,2.864,0,0,1-2.336-2.316c.018-1.039-.6-6.013,4.187-6.2,2.109-.187,8.211.791,9.045-4.484.231-1.452-.872-2.875-10.564-2.713a.87.87,0,0,1-.765-.744c0-1.22.363-4.73.331-6.421A.508.508,0,0,0,197.65,460.386Z" transform="translate(-155.527 -421.944)" fill="#042e99"/>
          <path id="路径_25" data-name="路径 25" d="M169.863,481.894c-2.567,3.4-3.4,16.227,4.708,9.361l5.569-5.559a.419.419,0,0,1,.705.254c1.208,8.971,3.259,12.667,4.058,12.573.665.1,2.321-.78,2.091-4.034V478.063a2.6,2.6,0,0,1,.426-1.429c1.426-2.166,5.983-9.2,6.871-11.863a14.581,14.581,0,0,0,.045-7.838,1.216,1.216,0,0,0-2.062-.6C190.257,457.831,172.207,478.79,169.863,481.894Z" transform="translate(-164.48 -424.735)" fill="#042e99"/>
        </g>
        <g id="组_148" data-name="组 148" transform="translate(0 0)">
          <g id="组_147" data-name="组 147">
            <path id="路径_26" data-name="路径 26" d="M174.641,455.222s-10.546,0-8.437,8.438c1.82,7.283,14.91,1.446,18.6-.353a.69.69,0,0,1,1,.565c.089,2.552,1.716,10.522,5.139,5.452a5.693,5.693,0,0,0,.573-2.766l.358-3.561c0-.938.282-1.606,1.192-1.833l9.025-2.256a1.986,1.986,0,0,1,2.452,1.668c.374,2.769.709,7.618-.769,11.254a.257.257,0,0,0,.416.289,36.721,36.721,0,0,0,8.507-13.609,3.411,3.411,0,0,1,2.811-1.944l8.706-1.344c2.109,0,5.794-2.43-3-2.522l-5.251-.042a2.328,2.328,0,0,1-2.133-2.286l-.165-7.3a5.476,5.476,0,0,0-1.574-3.856c-2.442-2.47-6.864-5.89-6.864,1.745a60.779,60.779,0,0,1-.6,10.6c-.155,1.08-1.056,1.377-2.148,1.377l-9.563.5a1.277,1.277,0,0,1-1.277-1.279l-.125-3.271c.232-.7-2.006-10.862-5.273,0l-.64,3.2a2.858,2.858,0,0,1-2.519,2.285Z" transform="translate(-165.925 -436.279)" fill="#fff"/>
            <path id="路径_27" data-name="路径 27" d="M197.65,459.386c-.961,1.489-2.885,4.374-3.986,6.08a5.806,5.806,0,0,1-2.574,1.86c-3.8.4-12.237.052-8.918,6.311,0,0,1.456,2.569,6.653,1.2a.5.5,0,0,1,.5.729c-.65,1.639-2.016,11.057,5.93,13.571,6.8,1.668,12.538,1.68,17.3.339,3.971-1.116,6.876-4.955,7.135-10.546.309-6.7-1.178-10.173-2.413-12.53-.07-.134-.254-.115-.247.035.515,11.92-7.008,17.789-18.327,15.989a2.864,2.864,0,0,1-2.336-2.316c.018-1.04-.6-6.013,4.187-6.2,2.109-.187,8.211.79,9.045-4.484.231-1.452-.872-2.875-10.564-2.713a.87.87,0,0,1-.765-.744c0-1.22.363-4.73.331-6.421A.508.508,0,0,0,197.65,459.386Z" transform="translate(-155.527 -420.944)" fill="#fff"/>
            <path id="路径_28" data-name="路径 28" d="M169.863,480.894c-2.567,3.4-3.4,16.227,4.708,9.361l5.569-5.559a.419.419,0,0,1,.705.254c1.208,8.971,3.259,12.667,4.058,12.573.665.1,2.321-.78,2.091-4.034V477.063a2.6,2.6,0,0,1,.426-1.429c1.426-2.166,5.983-9.2,6.871-11.863a14.581,14.581,0,0,0,.045-7.838,1.216,1.216,0,0,0-2.062-.6C190.257,456.831,172.207,477.79,169.863,480.894Z" transform="translate(-164.48 -423.735)" fill="#fff"/>
          </g>
        </g>
      </g>
      <path id="路径_29" data-name="路径 29" d="M185.132,455.458" transform="translate(951.107 1955.643)" fill="none" stroke="#000" stroke-miterlimit="10" stroke-width="1"/>
      <path id="路径_30" data-name="路径 30" d="M185.132,470.418" transform="translate(951.107 1965.685)" fill="#fff"/>
      <path id="路径_31" data-name="路径 31" d="M185.132,472.824" transform="translate(951.107 1967.3)" fill="#fff"/>
      <text id="Yiqihua_Credit_Pay" data-name="Yiqihua Credit Pay" transform="translate(1083 2475.309)" fill="#0392e0" font-size="14" font-family="SFProDisplay-Regular, SF Pro Display"><tspan x="0" y="0">Yiqihua Credit Pay</tspan></text>
      <path id="路径_80" data-name="路径 80" d="M185.132,455.458" transform="translate(951.107 1955.643)" fill="none" stroke="#000" stroke-miterlimit="10" stroke-width="1"/>
      <path id="路径_81" data-name="路径 81" d="M185.132,470.418" transform="translate(951.107 1965.685)" fill="#fff"/>
      <path id="路径_82" data-name="路径 82" d="M185.132,472.824" transform="translate(951.107 1967.3)" fill="#fff"/>
    </g>
  </g>
</svg>
